# xmcd CD database file
#
# Track frame offsets:
#	150
#	11165
#	25383
#	36779
#	44592
#	54075
#	66758
#	79767
#	93175
#	103690
#	115269
#	124957
#
# Disc length: 1776 seconds
#
# Revision: 0
# Processed by: cddbd v1.5.1PL0 Copyright (c) Steve Scherf et al.
# Submitted via: CDex 1.51
#
DISCID=9a06ee0c
DTITLE=Santa Vorster - My Friend Mr Echo
DYEAR=1900
DGENRE=Country
TTITLE0=Yodel Sweet Molly
TTITLE1=Somebody Loves You
TTITLE2=My Friend Mr. Echo
TTITLE3=Two Innocent Hearts
TTITLE4=Silver Threads and Golden neadles
TTITLE5=Ding Dong Polka
TTITLE6=Crystal Chandelier
TTITLE7=When its Springtime in the Rockies
TTITLE8=Singing the blues
TTITLE9=Ther goes my everything
TTITLE10=Make the world go away
TTITLE11=Sthe taught me how to yodel
EXTD=
EXTT0=
EXTT1=
EXTT2=
EXTT3=
EXTT4=
EXTT5=
EXTT6=
EXTT7=
EXTT8=
EXTT9=
EXTT10=
EXTT11=
PLAYORDER=
